HIERARCHY
ROOT Character1_Hips
{
  OFFSET -29.352 95.9456 63.9989
  CHANNELS 6 Xposition Yposition Zposition Zrotation Xrotation Yrotation
  JOINT Character1_Spine
  {
    OFFSET 0 8.754 -1.339
    CHANNELS 3 Zrotation Xrotation Yrotation
    JOINT Character1_Spine1
    {
      OFFSET 0 10.855 -0.645
      CHANNELS 3 Zrotation Xrotation Yrotation
      JOINT Character1_LeftShoulder
      {
        OFFSET 1.467 27.745 1.178
        CHANNELS 3 Zrotation Xrotation Yrotation
        JOINT Character1_LeftArm
        {
          OFFSET 18.486 -1.858 0.275
          CHANNELS 3 Zrotation Xrotation Yrotation
          JOINT Character1_LeftForeArm
          {
            OFFSET 31.798 2.36 2.921
            CHANNELS 3 Zrotation Xrotation Yrotation
            JOINT Character1_LeftHand
            {
              OFFSET 29.001 1.642 2.112
              CHANNELS 3 Zrotation Xrotation Yrotation
              End Site
              {
                OFFSET 0.269758 0.141128 0.89614
              }
            }
            JOINT L_Radius_RIGMESH
            {
              OFFSET 0.592911 0.209926 -0.435177
              CHANNELS 3 Zrotation Xrotation Yrotation
              End Site
              {
                OFFSET 0 0 0
              }
            }
          }
          JOINT L_Humerus_RIGMESH
          {
            OFFSET 0.000383861 -0.000257932 -6.47351e-005
            CHANNELS 3 Zrotation Xrotation Yrotation
            End Site
            {
              OFFSET 0 0 0
            }
          }
        }
        JOINT L_Shoulder_RIGMESH
        {
          OFFSET 3.24498e-005 -0.000608592 -0.000527677
          CHANNELS 3 Zrotation Xrotation Yrotation
          End Site
          {
            OFFSET 0 0 0
          }
        }
      }
      JOINT Character1_RightShoulder
      {
        OFFSET -1.467 27.745 1.178
        CHANNELS 3 Zrotation Xrotation Yrotation
        JOINT Character1_RightArm
        {
          OFFSET -18.486 -1.858 0.275
          CHANNELS 3 Zrotation Xrotation Yrotation
          JOINT Character1_RightForeArm
          {
            OFFSET -31.798 2.35964 2.92082
            CHANNELS 3 Zrotation Xrotation Yrotation
            JOINT Character1_RightHand
            {
              OFFSET -29.0007 1.64167 2.112
              CHANNELS 3 Zrotation Xrotation Yrotation
              End Site
              {
                OFFSET 161.773 0.141827 0.896322
              }
            }
            JOINT R_Radius_RIGMESH
            {
              OFFSET 104.095 0.21029 -0.434995
              CHANNELS 3 Zrotation Xrotation Yrotation
              End Site
              {
                OFFSET 0 0 0
              }
            }
          }
          JOINT R_Humerus_RIGMESH
          {
            OFFSET 39.9064 -0.000257932 -6.47351e-005
            CHANNELS 3 Zrotation Xrotation Yrotation
            End Site
            {
              OFFSET 0 0 0
            }
          }
        }
        JOINT R_Shoulder_RIGMESH
        {
          OFFSET -3.24498e-005 -0.000608592 -0.000527677
          CHANNELS 3 Zrotation Xrotation Yrotation
          End Site
          {
            OFFSET 0 0 0
          }
        }
      }
      JOINT Character1_Neck
      {
        OFFSET 0 30.836 0.626
        CHANNELS 3 Zrotation Xrotation Yrotation
        JOINT Character1_Head
        {
          OFFSET 0 8.074 3.498
          CHANNELS 3 Zrotation Xrotation Yrotation
          End Site
          {
            OFFSET 0 -0.00153379 1.54668e-005
          }
        }
        JOINT Neck_RIGMESH
        {
          OFFSET 0.0355146 0.000245254 1.22499
          CHANNELS 3 Zrotation Xrotation Yrotation
          End Site
          {
            OFFSET 0 0 0
          }
        }
      }
      JOINT Torso_RIGMESH
      {
        OFFSET 0 -0.000828813 -0.000380861
        CHANNELS 3 Zrotation Xrotation Yrotation
        End Site
        {
          OFFSET 0 0 0
        }
      }
    }
    JOINT Spine_RIGMESH
    {
      OFFSET -0.143182 -0.0455307 -0.219126
      CHANNELS 3 Zrotation Xrotation Yrotation
      End Site
      {
        OFFSET 0 0 0
      }
    }
  }
  JOINT Character1_RightUpLeg
  {
    OFFSET -9.035 -4.63425 1.845
    CHANNELS 3 Zrotation Xrotation Yrotation
    JOINT Character1_RightLeg
    {
      OFFSET -0.919521 -40.345 1.155
      CHANNELS 3 Zrotation Xrotation Yrotation
      JOINT Character1_RightFoot
      {
        OFFSET 1.95452 -45.2655 -4.18888
        CHANNELS 3 Zrotation Xrotation Yrotation
        JOINT Character1_RightToeBase
        {
          OFFSET 1.87056 -6.69517 14.7145
          CHANNELS 3 Zrotation Xrotation Yrotation
          End Site
          {
            OFFSET 0 0 0
          }
        }
        JOINT R_Talus_RIGMESH
        {
          OFFSET 8 -7.75529 4.18888
          CHANNELS 3 Zrotation Xrotation Yrotation
          End Site
          {
            OFFSET 0 0 0
          }
        }
      }
      JOINT R_Tibia_RIGMESH
      {
        OFFSET 0 0 0
        CHANNELS 3 Zrotation Xrotation Yrotation
        End Site
        {
          OFFSET 0 0 0
        }
      }
    }
    JOINT R_Femur_RIGMESH
    {
      OFFSET 0 0 0
      CHANNELS 3 Zrotation Xrotation Yrotation
      End Site
      {
        OFFSET 0 0 0
      }
    }
  }
  JOINT Character1_LeftUpLeg
  {
    OFFSET 9.035 -4.63425 1.845
    CHANNELS 3 Zrotation Xrotation Yrotation
    JOINT Character1_LeftLeg
    {
      OFFSET 0.919521 -40.345 1.155
      CHANNELS 3 Zrotation Xrotation Yrotation
      JOINT Character1_LeftFoot
      {
        OFFSET -1.95452 -45.2655 -4.18888
        CHANNELS 3 Zrotation Xrotation Yrotation
        JOINT Character1_LeftToeBase
        {
          OFFSET -1.87056 -6.69517 14.7145
          CHANNELS 3 Zrotation Xrotation Yrotation
          End Site
          {
            OFFSET 0 0 0
          }
        }
        JOINT L_Talus_RIGMESH
        {
          OFFSET -8 -7.75529 4.18888
          CHANNELS 3 Zrotation Xrotation Yrotation
          End Site
          {
            OFFSET 0 0 0
          }
        }
      }
      JOINT L_Tibia_RIGMESH
      {
        OFFSET 0 0 0
        CHANNELS 3 Zrotation Xrotation Yrotation
        End Site
        {
          OFFSET 0 0 0
        }
      }
    }
    JOINT L_Femur_RIGMESH
    {
      OFFSET 0 0 0
      CHANNELS 3 Zrotation Xrotation Yrotation
      End Site
      {
        OFFSET 0 0 0
      }
    }
  }
  JOINT Pelvis_RIGMESH
  {
    OFFSET 0 0 0
    CHANNELS 3 Zrotation Xrotation Yrotation
    End Site
    {
      OFFSET 0 0 0
    }
  }
}
MOTION
Frames:	4
Frame Time:	0.00833333
-29.2693 94.913 -372.251 2.71843 -0.51139 -9.97278 1.98785e-016 9.93923e-017 3.18055e-015 -3.56499 8.02389 2.55868 -7.28617 2.31263 -4.61327 -61.6946 28.711 -3.26806 0.000243862 -1.64631e-006 -23.7762 -2.92225 14.0304 3.781 -1.59028e-015 0 -0 -2.5842e-015 0 3.57812e-015 1.19271e-015 -3.18055e-015 -1.59028e-015 2.60401 1.06173 10.1658 67.1842 22.946 2.74695 8.32576e-006 5.01499e-006 24.0547 3.49034 23.2905 -3.375 -1.59028e-015 -6.36111e-015 -0 2.38542e-015 0 -3.97569e-015 -3.47873e-016 -3.18055e-015 -0 -0 0 3.18055e-015 1.62401 -10.52 8.28161 -1.43073 -12.5118 1.6355 -0 0 3.18055e-015 -1.14538 2.69195 0.795094 -7.9368 -21.9969 0.469847 0.180969 58.9054 -0.273309 6.59837 26.454 -6.718 11.1273 -45.7961 1.87491 1.59028e-015 0 -7.95139e-016 -8.82781e-032 3.18055e-015 1.59028e-015 -3.97569e-016 3.18055e-015 1.59028e-015 -0.703308 -17.1897 10.513 -0.440929 23.2158 0.264286 1.64447 -7.95945 4.95039 0.0580316 1.96267 -0.00185005 4.96962e-017 3.97569e-016 -1.59028e-015 5.28022e-017 7.95139e-016 4.96962e-017 1.64619e-016 6.36111e-015 -4.34841e-017 1.98785e-016 9.93923e-017 3.18055e-015 
-29.2453 95.0696 -371.297 2.58619 -0.608676 -9.76312 -4.5969e-016 9.93923e-017 -0 -3.38391 8.12057 2.12408 -7.1402 2.25122 -4.70918 -61.4217 28.7153 -3.52661 0.000243855 -1.643e-006 -24.0364 -2.86978 13.7977 3.64794 -1.59028e-015 0 3.18055e-015 1.98785e-016 0 -1.98785e-015 2.78299e-015 0 -0 2.67255 1.15926 10.0117 67.3963 22.9561 2.40269 8.32372e-006 5.01408e-006 24.078 3.51903 23.1891 -3.38796 -3.18055e-015 6.36111e-015 1.59028e-015 2.38542e-015 0 -0 -1.09332e-015 0 -0 4.41391e-032 1.59028e-015 -1.59028e-015 1.69403 -10.4375 8.45869 -1.35691 -12.3668 1.66376 4.41391e-032 1.59028e-015 -1.59028e-015 -1.09198 2.72029 0.650832 -7.75585 -22.8453 0.106159 0.180279 59.1065 -0.254206 6.40754 25.0118 -6.30006 9.62776 -43.0743 1.54768 -1.59028e-015 -3.18055e-015 -1.59028e-015 -7.95139e-016 3.18055e-015 -0 -7.95139e-016 3.18055e-015 3.18055e-015 -0.82823 -16.1983 10.3051 -0.388546 22.7053 0.255104 1.61522 -8.26949 4.91501 0.0580336 2.02228 -0.00185012 1.10348e-032 -3.97569e-016 1.59028e-015 3.01283e-016 7.95139e-016 -0 1.30452e-016 -6.36111e-015 -6.21202e-017 -4.5969e-016 9.93923e-017 -0 
-29.2211 95.2267 -370.344 2.45471 -0.706937 -9.5534 1.49089e-016 9.93923e-017 -0 -3.20252 8.21528 1.68874 -6.99446 2.18987 -4.80506 -61.1488 28.7191 -3.78506 0.000243848 -1.63966e-006 -24.2967 -2.81814 13.565 3.51498 -1.59028e-015 6.36111e-015 -1.59028e-015 -1.19271e-015 3.18055e-015 9.93923e-016 7.95139e-016 -3.18055e-015 -0 2.74157 1.25692 9.8576 67.6086 22.9655 2.05835 8.32168e-006 5.01316e-006 24.1013 3.54766 23.0877 -3.4008 -5.29669e-031 6.36111e-015 4.77083e-015 3.97569e-016 3.18055e-015 -0 -1.19271e-015 0 -3.97569e-016 -0 0 3.18055e-015 1.76409 -10.3543 8.63576 -1.28337 -12.2223 1.69349 -0 0 3.18055e-015 -1.03854 2.74882 0.505417 -7.57534 -23.6896 -0.257972 0.179564 59.305 -0.235397 6.2246 23.5662 -5.89295 8.16439 -39.9963 1.25356 0 0 -0 -0 0 3.18055e-015 3.18055e-015 3.18055e-015 4.77083e-015 -0.9576 -15.0842 10.1003 -0.349383 22.0539 0.24131 1.59197 -8.59289 4.88002 0.0580355 2.0819 -0.00185019 -0 0 7.95139e-016 1.80149e-016 -7.95139e-016 4.96962e-017 1.86361e-016 -6.36111e-015 -1.98785e-016 1.49089e-016 9.93923e-017 -0 
-29.1968 95.3842 -369.393 2.32398 -0.806178 -9.34363 -1.49089e-016 -9.93923e-017 -3.18055e-015 -3.02076 8.30787 1.25262 -6.849 2.12876 -4.90088 -60.8761 28.7224 -4.04341 0.00024384 -1.63628e-006 -24.557 -2.76737 13.3325 3.38204 5.29669e-031 9.54166e-015 -3.18055e-015 0 0 -2.08724e-015 -3.97569e-016 1.59028e-015 -1.59028e-015 2.81099 1.35488 9.70354 67.8212 22.974 1.71385 8.31963e-006 5.01225e-006 24.1247 3.57614 22.9862 -3.41359 1.59028e-015 0 -3.18055e-015 -5.1684e-015 6.36111e-015 1.59028e-015 -1.36664e-015 -1.59028e-015 -0 -1.98785e-016 -1.59028e-015 -1.59028e-015 1.83423 -10.2708 8.81282 -1.2097 -12.0768 1.7202 -1.98785e-016 -1.59028e-015 -1.59028e-015 -0.984758 2.77691 0.362289 -7.39504 -24.5308 -0.622488 0.178635 59.5021 -0.216859 6.04903 22.1173 -5.4962 6.81077 -36.5168 1.00103 -3.18055e-015 6.36111e-015 -0 -3.97569e-015 3.18055e-015 1.59028e-015 0 0 -1.59028e-015 -1.09357 -13.9698 9.89476 -0.301403 21.3791 0.22815 1.57518 -8.92778 4.84534 0.0591691 2.14151 -0.00185026 -2.48481e-017 0 1.59028e-015 4.96962e-017 0 4.96962e-017 -1.61513e-016 0 -0 -1.49089e-016 -9.93923e-017 -3.18055e-015 
